# xmcd
#
# Track frame offsets: 
#        300
#        21703
#        38251
#        56321
#        70786
#        93751
#        109749
#        123700
#        139590
#        157096
#
# Disc length: 2282 seconds
#
# Revision: 4
# Processed by: cddbd v1.5.2PL0 Copyright (c) Steve Scherf et al.
# Submitted via: ExactAudioCopy v0.99pb5
#
DISCID=8208e60a
DTITLE=Bonnie Raitt - Streetlights
DYEAR=1974
DGENRE=Blues Rock
TTITLE0=That Song About The Midway
TTITLE1=Rainy Day Man
TTITLE2=Angel From Montgomery
TTITLE3=I Got Plenty
TTITLE4=Streetlights
TTITLE5=What Is Success
TTITLE6=Ain't Nobody Home
TTITLE7=Everything That Touches You
TTITLE8=Got You On My Mind
TTITLE9=You Got To Be Ready For Love
EXTD=Label: Warner Brothers\nReleased: 1974 \nCredits:\n  Bonnie Raitt
EXTD=Guitar, Vocals\n  Arthur Jenkins Percussion  \n  Jeff Mironov Gu
EXTD=itar  \n  Freebo Bass, Vocals, Bass (Electric)  \n  Paul Griffin 
EXTD=Keyboards  \n  Bob Babbitt Bass, Bass (Electric)  \n  Natalie Ven
EXTD=eable Vocals (Background)  \n  John Hall Guitar  \n  Lou Courtney
EXTD=Vocals, Vocals (Background)  \n  John Tropea Guitar  \n  Don Gro
EXTD=inick Keyboards  \n  Tasha Thomas Vocals, Vocals (Background)  \n
EXTD=David Lasley Vocals, Vocals (Background)  \n  Bruce Tergesen En
EXTD=gineer  \n  Natalie Venable Vocals, Vocals (Background)  \n  Davi
EXTD=d Spinozza Guitar  \n  Carl Hall Vocals, Vocals (Background)  \n 
EXTD=Don Grolnick Keyboards  \n  David Matthews Horn, Strings  \n  Le
EXTD=on Pendarvis Keyboards  \n  Charlie Brown Guitar  \n  Ralph MacDo
EXTD=nald Percussion  \n  Robert Mann Guitar  \n  Jo Motta Project Coo
EXTD=rdinator  \n  Gregg Geller Series Producer  \n  Richard Davis Bas
EXTD=s, Bass (Electric)  \n  Larry Wilcox Horn, Strings\n  Steve Gadd 
EXTD=Drums  \n  Jon Mayer Keyboards  \n  Sharon Redd Vocals and Backgrou
EXTD=nd\n  Jerry Friedman Guitar YEAR: 1974
EXTT0=
EXTT1=
EXTT2=
EXTT3=
EXTT4=
EXTT5=
EXTT6=
EXTT7=
EXTT8=
EXTT9=
PLAYORDER=
